<svg width="25" height="25" viewBox="0 0 25 25" fill="none" xmlns="http://www.w3.org/2000/svg">
<path d="M11.9084 7.78914V12.0343L8.38102 14.1505C8.20335 14.2572 8.07534 14.4301 8.02516 14.6312C7.97498 14.8323 8.00673 15.0451 8.11344 15.2227C8.22015 15.4004 8.39307 15.5284 8.59416 15.5786C8.79525 15.6288 9.00803 15.597 9.18571 15.4903L13.092 13.1466C13.2076 13.0771 13.3032 12.9789 13.3696 12.8615C13.436 12.7441 13.4709 12.6115 13.4709 12.4766V7.78914C13.4709 7.58194 13.3886 7.38323 13.242 7.23671C13.0955 7.0902 12.8968 7.00789 12.6896 7.00789C12.4824 7.00789 12.2837 7.0902 12.1372 7.23671C11.9907 7.38323 11.9084 7.58194 11.9084 7.78914Z" fill="#5CA643"/>
<path d="M9.97732 22.0954C11.7477 22.4875 13.5931 22.3995 15.3216 21.8372C15.5191 21.7722 15.6827 21.6314 15.7763 21.4458C15.87 21.2602 15.8861 21.0449 15.8211 20.8475C15.7561 20.65 15.6153 20.4864 15.4297 20.3927C15.2441 20.2991 15.0289 20.283 14.8314 20.348C13.2726 20.8552 11.6014 20.9067 10.0143 20.4964C8.4273 20.086 6.99047 19.231 5.87291 18.0317C4.75535 16.8325 4.00355 15.339 3.70598 13.727C3.40841 12.115 3.57744 10.4516 4.19319 8.93239C4.49154 8.19629 4.88876 7.50889 5.37096 6.88777C5.84407 6.27963 6.39907 5.73475 7.02326 5.26992C8.33799 4.29086 9.90501 3.70767 11.5399 3.58897C13.1749 3.47028 14.8097 3.82101 16.2521 4.59992C17.6944 5.37882 18.8843 6.55348 19.6817 7.98569C20.4791 9.4179 20.8509 11.0481 20.7532 12.6844C20.7468 12.7871 20.7606 12.8901 20.7939 12.9875C20.8272 13.0849 20.8794 13.1748 20.9475 13.252C21.0156 13.3293 21.0982 13.3923 21.1906 13.4376C21.2831 13.483 21.3835 13.5096 21.4863 13.5161C21.589 13.5226 21.692 13.5087 21.7894 13.4754C21.8868 13.4421 21.9767 13.3899 22.0539 13.3218C22.1311 13.2538 22.1942 13.1712 22.2395 13.0787C22.2848 12.9863 22.3115 12.8858 22.3179 12.7831C22.426 10.9687 22.0457 9.16082 21.2197 7.54664C21.2058 7.50218 21.1878 7.45894 21.1661 7.41747C20.2612 5.70506 18.8861 4.2867 17.2025 3.32927C15.5189 2.37184 13.5969 1.91517 11.6626 2.01298C9.72829 2.11079 7.86214 2.75901 6.28372 3.88139C5.46704 4.46211 4.74496 5.15726 4.13745 5.9416C3.52146 6.73475 3.02326 7.61876 2.66297 8.567C1.97507 10.3775 1.81856 12.3468 2.21186 14.2433C2.60516 16.1397 3.53191 17.8843 4.88308 19.272C6.23425 20.6596 7.95363 21.6324 9.83892 22.0761C9.88471 22.0867 9.93102 22.0931 9.97732 22.0954Z" fill="#5CA643"/>
<path d="M22.2521 18.1329C22.2521 18.3401 22.1698 18.5388 22.0233 18.6853C21.8768 18.8318 21.6781 18.9141 21.4709 18.9141H19.9084V20.4766C19.9084 20.6838 19.8261 20.8826 19.6795 21.0291C19.533 21.1756 19.3343 21.2579 19.1271 21.2579C18.9199 21.2579 18.7212 21.1756 18.5747 21.0291C18.4282 20.8826 18.3459 20.6838 18.3459 20.4766V18.9141H16.7834C16.5762 18.9141 16.3775 18.8318 16.2309 18.6853C16.0844 18.5388 16.0021 18.3401 16.0021 18.1329C16.0021 17.9257 16.0844 17.727 16.2309 17.5805C16.3775 17.4339 16.5762 17.3516 16.7834 17.3516H18.3459V15.7891C18.3459 15.5819 18.4282 15.3832 18.5747 15.2367C18.7212 15.0902 18.9199 15.0079 19.1271 15.0079C19.3343 15.0079 19.533 15.0902 19.6795 15.2367C19.8261 15.3832 19.9084 15.5819 19.9084 15.7891V17.3516H21.4709C21.6781 17.3516 21.8768 17.4339 22.0233 17.5805C22.1698 17.727 22.2521 17.9257 22.2521 18.1329Z" fill="#5CA643"/>
</svg>
