<svg width="16" height="15" viewBox="0 0 16 15" fill="none" xmlns="http://www.w3.org/2000/svg">
<g clip-path="url(#clip0_1301_2548)">
<path d="M13.8357 9.33563L13.8358 9.33559C13.9247 9.24653 13.9747 9.1258 13.9747 8.99992C13.9747 8.87405 13.9247 8.75332 13.8358 8.66426L13.8357 8.66421L9.33571 4.16421L9.33575 4.16417L9.33317 4.16176C9.24313 4.07786 9.12403 4.03218 9.00097 4.03435C8.87792 4.03652 8.76051 4.08637 8.67348 4.1734C8.58645 4.26043 8.5366 4.37784 8.53443 4.5009C8.53226 4.62395 8.57793 4.74305 8.66184 4.8331L8.66179 4.83314L8.66428 4.83563L12.353 8.52492H2.5C2.37402 8.52492 2.2532 8.57497 2.16412 8.66405C2.07504 8.75313 2.025 8.87394 2.025 8.99992C2.025 9.1259 2.07504 9.24672 2.16412 9.3358C2.2532 9.42488 2.37402 9.47492 2.5 9.47492H12.353L8.66428 13.1642L8.66424 13.1642L8.66184 13.1667C8.57793 13.2568 8.53226 13.3759 8.53443 13.4989C8.5366 13.622 8.58645 13.7394 8.67348 13.8264C8.76051 13.9135 8.87792 13.9633 9.00097 13.9655C9.12403 13.9677 9.24313 13.922 9.33317 13.8381L9.33321 13.8381L9.33571 13.8356L13.8357 9.33563Z" fill="#46A51E" stroke="#46A51E" stroke-width="0.2"/>
</g>
<defs>
<clipPath id="clip0_1301_2548">
<rect width="16" height="14" fill="white" transform="translate(0 0.5)"/>
</clipPath>
</defs>
</svg>
