<svg width="25" height="25" viewBox="0 0 25 25" fill="none" xmlns="http://www.w3.org/2000/svg">
<path d="M13.6719 12.5C13.6719 12.7318 13.6031 12.9583 13.4744 13.1511C13.3456 13.3438 13.1626 13.494 12.9485 13.5827C12.7343 13.6714 12.4987 13.6946 12.2714 13.6494C12.0441 13.6041 11.8352 13.4925 11.6714 13.3286C11.5075 13.1648 11.3959 12.9559 11.3506 12.7286C11.3054 12.5013 11.3286 12.2657 11.4173 12.0515C11.506 11.8374 11.6562 11.6544 11.8489 11.5256C12.0417 11.3969 12.2682 11.3281 12.5 11.3281C12.8108 11.3281 13.1089 11.4516 13.3286 11.6714C13.5484 11.8911 13.6719 12.1892 13.6719 12.5ZM12.5 7.03125C12.7318 7.03125 12.9583 6.96252 13.1511 6.83375C13.3438 6.70499 13.494 6.52196 13.5827 6.30783C13.6714 6.0937 13.6946 5.85808 13.6494 5.63075C13.6041 5.40343 13.4925 5.19462 13.3286 5.03073C13.1648 4.86685 12.9559 4.75523 12.7286 4.71002C12.5013 4.6648 12.2657 4.68801 12.0515 4.7767C11.8374 4.8654 11.6544 5.0156 11.5256 5.20832C11.3969 5.40103 11.3281 5.6276 11.3281 5.85938C11.3281 6.17018 11.4516 6.46825 11.6714 6.68802C11.8911 6.90779 12.1892 7.03125 12.5 7.03125ZM12.5 17.9688C12.2682 17.9688 12.0417 18.0375 11.8489 18.1662C11.6562 18.295 11.506 18.478 11.4173 18.6922C11.3286 18.9063 11.3054 19.1419 11.3506 19.3692C11.3959 19.5966 11.5075 19.8054 11.6714 19.9693C11.8352 20.1332 12.0441 20.2448 12.2714 20.29C12.4987 20.3352 12.7343 20.312 12.9485 20.2233C13.1626 20.1346 13.3456 19.9844 13.4744 19.7917C13.6031 19.599 13.6719 19.3724 13.6719 19.1406C13.6719 18.8298 13.5484 18.5318 13.3286 18.312C13.1089 18.0922 12.8108 17.9688 12.5 17.9688Z" fill="#46A51E"/>
</svg>
