<svg width="26" height="26" viewBox="0 0 26 26" fill="none" xmlns="http://www.w3.org/2000/svg">
<path d="M24.7392 12.2258C24.7051 12.1487 23.8779 10.3137 22.0391 8.47485C19.5889 6.02466 16.4941 4.72974 13.0879 4.72974C9.68163 4.72974 6.5869 6.02466 4.13671 8.47485C2.29784 10.3137 1.46679 12.1516 1.43651 12.2258C1.39209 12.3257 1.36914 12.4339 1.36914 12.5432C1.36914 12.6526 1.39209 12.7607 1.43651 12.8606C1.47069 12.9377 2.29784 14.7717 4.13671 16.6106C6.5869 19.0598 9.68163 20.3547 13.0879 20.3547C16.4941 20.3547 19.5889 19.0598 22.0391 16.6106C23.8779 14.7717 24.7051 12.9377 24.7392 12.8606C24.7837 12.7607 24.8066 12.6526 24.8066 12.5432C24.8066 12.4339 24.7837 12.3257 24.7392 12.2258ZM13.0879 18.7922C10.082 18.7922 7.45605 17.6995 5.28222 15.5452C4.39027 14.6581 3.63142 13.6467 3.02929 12.5422C3.63126 11.4377 4.39012 10.4262 5.28222 9.53931C7.45605 7.38501 10.082 6.29224 13.0879 6.29224C16.0937 6.29224 18.7197 7.38501 20.8935 9.53931C21.7872 10.426 22.5477 11.4375 23.1514 12.5422C22.4473 13.8567 19.3799 18.7922 13.0879 18.7922ZM13.0879 7.85474C12.1608 7.85474 11.2545 8.12965 10.4836 8.64472C9.71279 9.15979 9.11198 9.89188 8.7572 10.7484C8.40241 11.6049 8.30958 12.5474 8.49045 13.4567C8.67132 14.366 9.11776 15.2012 9.77332 15.8568C10.4289 16.5124 11.2641 16.9588 12.1734 17.1397C13.0827 17.3205 14.0252 17.2277 14.8817 16.8729C15.7382 16.5181 16.4703 15.9173 16.9854 15.1465C17.5005 14.3756 17.7754 13.4693 17.7754 12.5422C17.7741 11.2994 17.2798 10.1079 16.401 9.2291C15.5222 8.3503 14.3307 7.85603 13.0879 7.85474ZM13.0879 15.6672C12.4698 15.6672 11.8656 15.484 11.3517 15.1406C10.8378 14.7972 10.4373 14.3091 10.2008 13.7381C9.96423 13.1671 9.90235 12.5388 10.0229 11.9326C10.1435 11.3264 10.4411 10.7696 10.8782 10.3325C11.3152 9.89549 11.872 9.59786 12.4782 9.47728C13.0844 9.3567 13.7127 9.41859 14.2838 9.65511C14.8548 9.89164 15.3428 10.2922 15.6862 10.8061C16.0296 11.32 16.2129 11.9242 16.2129 12.5422C16.2129 13.371 15.8836 14.1659 15.2976 14.7519C14.7115 15.338 13.9167 15.6672 13.0879 15.6672Z" fill="#46A51E"/>
</svg>
