<svg width="60" height="60" viewBox="0 0 60 60" fill="none" xmlns="http://www.w3.org/2000/svg">
<path d="M35.625 26.25C35.625 26.7473 35.4275 27.2242 35.0759 27.5759C34.7242 27.9275 34.2473 28.125 33.75 28.125H28.125V33.75C28.125 34.2473 27.9275 34.7242 27.5759 35.0759C27.2242 35.4275 26.7473 35.625 26.25 35.625C25.7528 35.625 25.2759 35.4275 24.9242 35.0759C24.5726 34.7242 24.375 34.2473 24.375 33.75V28.125H18.75C18.2528 28.125 17.7759 27.9275 17.4242 27.5759C17.0726 27.2242 16.875 26.7473 16.875 26.25C16.875 25.7528 17.0726 25.2759 17.4242 24.9242C17.7759 24.5726 18.2528 24.375 18.75 24.375H24.375V18.75C24.375 18.2528 24.5726 17.7759 24.9242 17.4242C25.2759 17.0726 25.7528 16.875 26.25 16.875C26.7473 16.875 27.2242 17.0726 27.5759 17.4242C27.9275 17.7759 28.125 18.2528 28.125 18.75V24.375H33.75C34.2473 24.375 34.7242 24.5726 35.0759 24.9242C35.4275 25.2759 35.625 25.7528 35.625 26.25ZM53.8266 53.8266C53.6525 54.0009 53.4457 54.1392 53.2181 54.2336C52.9904 54.328 52.7465 54.3765 52.5 54.3765C52.2536 54.3765 52.0097 54.328 51.782 54.2336C51.5544 54.1392 51.3476 54.0009 51.1735 53.8266L39.4407 42.0915C35.3572 45.4928 30.1196 47.1889 24.8174 46.8269C19.5152 46.4649 14.5567 44.0726 10.9734 40.1479C7.3901 36.2231 5.45783 31.068 5.57858 25.7548C5.69933 20.4417 7.8638 15.3796 11.6217 11.6217C15.3796 7.8638 20.4417 5.69933 25.7548 5.57858C31.068 5.45783 36.2231 7.3901 40.1479 10.9734C44.0726 14.5567 46.4649 19.5152 46.8269 24.8174C47.1889 30.1196 45.4928 35.3572 42.0915 39.4407L53.8266 51.1735C54.0009 51.3476 54.1392 51.5544 54.2336 51.782C54.328 52.0097 54.3765 52.2536 54.3765 52.5C54.3765 52.7465 54.328 52.9904 54.2336 53.2181C54.1392 53.4457 54.0009 53.6525 53.8266 53.8266ZM26.25 43.125C29.5876 43.125 32.8502 42.1353 35.6253 40.2811C38.4004 38.4268 40.5633 35.7913 41.8405 32.7078C43.1177 29.6243 43.4519 26.2313 42.8008 22.9579C42.1497 19.6845 40.5425 16.6776 38.1825 14.3176C35.8225 11.9576 32.8156 10.3504 29.5422 9.6993C26.2688 9.04817 22.8758 9.38235 19.7923 10.6596C16.7088 11.9368 14.0732 14.0997 12.219 16.8748C10.3647 19.6499 9.37505 22.9125 9.37505 26.25C9.38001 30.7241 11.1595 35.0134 14.3231 38.177C17.4867 41.3406 21.776 43.1201 26.25 43.125Z" fill="white"/>
</svg>
