<svg width="32" height="32" viewBox="0 0 32 32" fill="none" xmlns="http://www.w3.org/2000/svg">
<path d="M18.7191 24.7602L11.2199 16.5788C11.1502 16.5029 11.0949 16.4126 11.0572 16.3133C11.0194 16.214 11 16.1075 11 16C11 15.8925 11.0194 15.786 11.0572 15.6867C11.0949 15.5874 11.1502 15.4971 11.2199 15.4212L18.7191 7.23976C18.8598 7.08624 19.0507 7 19.2497 7C19.4487 7 19.6395 7.08624 19.7802 7.23976C19.9209 7.39328 20 7.60149 20 7.8186C20 8.0357 19.9209 8.24391 19.7802 8.39743L12.8107 16L19.7802 23.6026C19.8499 23.6786 19.9052 23.7688 19.9429 23.8681C19.9806 23.9675 20 24.0739 20 24.1814C20 24.2889 19.9806 24.3954 19.9429 24.4947C19.9052 24.594 19.8499 24.6842 19.7802 24.7602C19.7106 24.8363 19.6278 24.8965 19.5368 24.9377C19.4458 24.9788 19.3482 25 19.2497 25C19.1511 25 19.0536 24.9788 18.9625 24.9377C18.8715 24.8965 18.7888 24.8363 18.7191 24.7602Z" fill="#46A51E"/>
</svg>
