<svg width="25" height="25" viewBox="0 0 25 25" fill="none" xmlns="http://www.w3.org/2000/svg">
<path d="M19.5312 21.875H14.7012C15.5126 21.1505 16.2777 20.3759 16.9922 19.5557C19.6729 16.4727 21.0938 13.2227 21.0938 10.1562C21.0938 7.87705 20.1883 5.69119 18.5767 4.07955C16.9651 2.46791 14.7792 1.5625 12.5 1.5625C10.2208 1.5625 8.03494 2.46791 6.4233 4.07955C4.81166 5.69119 3.90625 7.87705 3.90625 10.1562C3.90625 13.2227 5.32324 16.4727 8.00781 19.5557C8.72228 20.3759 9.48745 21.1505 10.2988 21.875H5.46875C5.26155 21.875 5.06284 21.9573 4.91632 22.1038C4.76981 22.2503 4.6875 22.449 4.6875 22.6562C4.6875 22.8635 4.76981 23.0622 4.91632 23.2087C5.06284 23.3552 5.26155 23.4375 5.46875 23.4375H19.5312C19.7385 23.4375 19.9372 23.3552 20.0837 23.2087C20.2302 23.0622 20.3125 22.8635 20.3125 22.6562C20.3125 22.449 20.2302 22.2503 20.0837 22.1038C19.9372 21.9573 19.7385 21.875 19.5312 21.875ZM5.46875 10.1562C5.46875 8.29145 6.20954 6.50302 7.52816 5.18441C8.84677 3.86579 10.6352 3.125 12.5 3.125C14.3648 3.125 16.1532 3.86579 17.4718 5.18441C18.7905 6.50302 19.5312 8.29145 19.5312 10.1562C19.5312 15.7451 14.1143 20.4102 12.5 21.6797C10.8857 20.4102 5.46875 15.7451 5.46875 10.1562ZM16.4062 10.1562C16.4062 9.38367 16.1772 8.62843 15.7479 7.98605C15.3187 7.34367 14.7086 6.843 13.9949 6.54735C13.2811 6.25169 12.4957 6.17433 11.7379 6.32506C10.9802 6.47578 10.2842 6.84782 9.73786 7.39411C9.19157 7.94041 8.81953 8.63644 8.66881 9.39418C8.51808 10.1519 8.59544 10.9373 8.8911 11.6511C9.18675 12.3649 9.68742 12.975 10.3298 13.4042C10.9722 13.8334 11.7274 14.0625 12.5 14.0625C13.536 14.0625 14.5296 13.6509 15.2621 12.9184C15.9947 12.1858 16.4062 11.1923 16.4062 10.1562ZM10.1562 10.1562C10.1562 9.6927 10.2937 9.23956 10.5512 8.85413C10.8088 8.4687 11.1748 8.1683 11.6031 7.99091C12.0314 7.81351 12.5026 7.7671 12.9572 7.85753C13.4119 7.94797 13.8295 8.17119 14.1573 8.49897C14.4851 8.82675 14.7083 9.24436 14.7987 9.69901C14.8891 10.1537 14.8427 10.6249 14.6653 11.0532C14.488 11.4814 14.1875 11.8475 13.8021 12.105C13.4167 12.3625 12.9635 12.5 12.5 12.5C11.8784 12.5 11.2823 12.2531 10.8427 11.8135C10.4032 11.374 10.1562 10.7779 10.1562 10.1562Z" fill="#46A51E"/>
</svg>
