<svg width="26" height="26" viewBox="0 0 26 26" fill="none" xmlns="http://www.w3.org/2000/svg">
<path d="M17.8145 10.2632C17.8871 10.3357 17.9447 10.4219 17.984 10.5167C18.0234 10.6116 18.0436 10.7132 18.0436 10.8159C18.0436 10.9186 18.0234 11.0202 17.984 11.1151C17.9447 11.2099 17.8871 11.2961 17.8145 11.3687L12.3457 16.8374C12.2732 16.91 12.187 16.9677 12.0921 17.007C11.9973 17.0463 11.8956 17.0665 11.793 17.0665C11.6903 17.0665 11.5886 17.0463 11.4938 17.007C11.399 16.9677 11.3128 16.91 11.2402 16.8374L8.89649 14.4937C8.74989 14.3471 8.66754 14.1482 8.66754 13.9409C8.66754 13.7336 8.74989 13.5348 8.89649 13.3882C9.04308 13.2416 9.24191 13.1592 9.44922 13.1592C9.65654 13.1592 9.85536 13.2416 10.002 13.3882L11.793 15.1802L16.709 10.2632C16.7815 10.1905 16.8677 10.1329 16.9626 10.0936C17.0574 10.0543 17.1591 10.0341 17.2617 10.0341C17.3644 10.0341 17.4661 10.0543 17.5609 10.0936C17.6557 10.1329 17.7419 10.1905 17.8145 10.2632ZM23.5117 13.1597C23.5117 15.1684 22.9161 17.132 21.8001 18.8022C20.6841 20.4724 19.0979 21.7741 17.2421 22.5428C15.3863 23.3115 13.3442 23.5126 11.3741 23.1208C9.40397 22.7289 7.5943 21.7616 6.17392 20.3412C4.75354 18.9208 3.78625 17.1112 3.39437 15.1411C3.00249 13.1709 3.20362 11.1289 3.97232 9.27304C4.74102 7.41723 6.04278 5.83104 7.71296 4.71505C9.38315 3.59907 11.3468 3.00342 13.3555 3.00342C16.0482 3.00626 18.6298 4.0772 20.5339 5.98126C22.4379 7.88531 23.5089 10.4669 23.5117 13.1597ZM21.9492 13.1597C21.9492 11.46 21.4452 9.79847 20.5009 8.38524C19.5566 6.972 18.2145 5.87052 16.6442 5.22008C15.0739 4.56964 13.3459 4.39945 11.6789 4.73104C10.0119 5.06264 8.48063 5.88111 7.27877 7.08297C6.07692 8.28483 5.25844 9.81609 4.92685 11.4831C4.59526 13.1501 4.76544 14.8781 5.41588 16.4484C6.06632 18.0187 7.16781 19.3608 8.58104 20.3051C9.99428 21.2494 11.6558 21.7534 13.3555 21.7534C15.6339 21.7508 17.8182 20.8446 19.4293 19.2335C21.0404 17.6224 21.9466 15.4381 21.9492 13.1597Z" fill="#46A51E"/>
</svg>
