<svg width="26" height="26" viewBox="0 0 26 26" fill="none" xmlns="http://www.w3.org/2000/svg">
<path d="M22.3809 7.74863L18.0166 3.38438C17.8896 3.25741 17.7389 3.15669 17.573 3.08797C17.4072 3.01925 17.2294 2.98389 17.0498 2.98389C16.8703 2.98389 16.6925 3.01925 16.5266 3.08797C16.3607 3.15669 16.21 3.25741 16.083 3.38438L4.04004 15.4264C3.91283 15.5531 3.81196 15.7038 3.74324 15.8698C3.67452 16.0357 3.63932 16.2136 3.63965 16.3932V20.7574C3.63965 21.12 3.78369 21.4678 4.04009 21.7242C4.29649 21.9806 4.64424 22.1246 5.00684 22.1246H21.4131C21.5685 22.1246 21.7175 22.0629 21.8274 21.953C21.9373 21.8431 21.999 21.6941 21.999 21.5387C21.999 21.3833 21.9373 21.2342 21.8274 21.1244C21.7175 21.0145 21.5685 20.9527 21.4131 20.9527H11.1094L22.3809 9.68223C22.5078 9.55527 22.6086 9.40455 22.6773 9.23866C22.746 9.07278 22.7814 8.89498 22.7814 8.71543C22.7814 8.53588 22.746 8.35808 22.6773 8.1922C22.6086 8.02631 22.5078 7.87559 22.3809 7.74863ZM9.45215 20.9527H5.00684C4.95504 20.9527 4.90536 20.9322 4.86873 20.8955C4.8321 20.8589 4.81153 20.8092 4.81153 20.7574V16.3932C4.81174 16.3414 4.83246 16.2919 4.86914 16.2555L13.6006 7.52402L18.2412 12.1637L9.45215 20.9527ZM21.5518 8.85313L19.0693 11.3355L14.4297 6.69492L16.9111 4.21348C16.9293 4.19532 16.9508 4.18091 16.9745 4.17108C16.9982 4.16125 17.0237 4.1562 17.0493 4.1562C17.075 4.1562 17.1004 4.16125 17.1241 4.17108C17.1478 4.18091 17.1694 4.19532 17.1875 4.21348L21.5518 8.57676C21.5699 8.5949 21.5843 8.61644 21.5942 8.64015C21.604 8.66386 21.609 8.68928 21.609 8.71494C21.609 8.74061 21.604 8.76603 21.5942 8.78974C21.5843 8.81345 21.5699 8.83499 21.5518 8.85313Z" fill="#46A51E"/>
</svg>
