<svg width="26" height="26" viewBox="0 0 26 26" fill="none" xmlns="http://www.w3.org/2000/svg">
<path d="M22.6182 7.25367L18.2539 2.89039C18.1088 2.74526 17.9366 2.63013 17.747 2.55159C17.5574 2.47304 17.3542 2.43262 17.1489 2.43262C16.9437 2.43262 16.7405 2.47304 16.5509 2.55159C16.3613 2.63013 16.189 2.74526 16.044 2.89039L4.00196 14.9324C3.85624 15.0769 3.7407 15.249 3.66208 15.4386C3.58345 15.6283 3.5433 15.8316 3.54395 16.0369V20.4011C3.54395 20.8155 3.70857 21.213 4.0016 21.506C4.29462 21.799 4.69205 21.9636 5.10645 21.9636H21.5127C21.7199 21.9636 21.9186 21.8813 22.0651 21.7348C22.2116 21.5883 22.294 21.3896 22.294 21.1824C22.294 20.9752 22.2116 20.7765 22.0651 20.63C21.9186 20.4834 21.7199 20.4011 21.5127 20.4011H11.6807L22.6182 9.46363C22.7633 9.31854 22.8784 9.14627 22.957 8.95668C23.0355 8.76708 23.0759 8.56387 23.0759 8.35865C23.0759 8.15343 23.0355 7.95022 22.957 7.76063C22.8784 7.57103 22.7633 7.39877 22.6182 7.25367ZM9.47071 20.4011H5.10645V16.0369L13.7002 7.44312L18.0645 11.8074L9.47071 20.4011ZM19.169 10.7029L14.8057 6.33863L17.1494 3.99488L21.5127 8.35914L19.169 10.7029Z" fill="#46A51E"/>
</svg>
