<svg width="32" height="32" viewBox="0 0 32 32" fill="none" xmlns="http://www.w3.org/2000/svg">
<path d="M13.2809 24.7602L20.7801 16.5788C20.8498 16.5029 20.9051 16.4126 20.9428 16.3133C20.9806 16.214 21 16.1075 21 16C21 15.8925 20.9806 15.786 20.9428 15.6867C20.9051 15.5874 20.8498 15.4971 20.7801 15.4212L13.2809 7.23976C13.1402 7.08624 12.9493 7 12.7503 7C12.5513 7 12.3605 7.08624 12.2198 7.23976C12.0791 7.39328 12 7.60149 12 7.8186C12 8.0357 12.0791 8.24391 12.2198 8.39743L19.1893 16L12.2198 23.6026C12.1501 23.6786 12.0948 23.7688 12.0571 23.8681C12.0194 23.9675 12 24.0739 12 24.1814C12 24.2889 12.0194 24.3954 12.0571 24.4947C12.0948 24.594 12.1501 24.6842 12.2198 24.7602C12.2894 24.8363 12.3722 24.8965 12.4632 24.9377C12.5542 24.9788 12.6518 25 12.7503 25C12.8489 25 12.9464 24.9788 13.0375 24.9377C13.1285 24.8965 13.2112 24.8363 13.2809 24.7602Z" fill="black"/>
</svg>
