<svg width="32" height="32" viewBox="0 0 32 32" fill="none" xmlns="http://www.w3.org/2000/svg">
<path d="M13.2809 7.23976L20.7801 15.4212C20.8498 15.4971 20.9051 15.5874 20.9428 15.6867C20.9806 15.786 21 15.8925 21 16C21 16.1075 20.9806 16.214 20.9428 16.3133C20.9051 16.4126 20.8498 16.5029 20.7801 16.5788L13.2809 24.7602C13.1402 24.9138 12.9493 25 12.7503 25C12.5513 25 12.3605 24.9138 12.2198 24.7602C12.0791 24.6067 12 24.3985 12 24.1814C12 23.9643 12.0791 23.7561 12.2198 23.6026L19.1893 16L12.2198 8.39743C12.1501 8.32142 12.0948 8.23118 12.0571 8.13186C12.0194 8.03254 12 7.9261 12 7.8186C12 7.7111 12.0194 7.60465 12.0571 7.50533C12.0948 7.40602 12.1501 7.31578 12.2198 7.23976C12.2894 7.16375 12.3722 7.10345 12.4632 7.06231C12.5542 7.02117 12.6518 7 12.7503 7C12.8489 7 12.9464 7.02117 13.0375 7.06231C13.1285 7.10345 13.2112 7.16375 13.2809 7.23976Z" fill="white"/>
</svg>
