<svg width="20" height="21" viewBox="0 0 20 21" fill="none" xmlns="http://www.w3.org/2000/svg">
<path d="M18.9358 7.89843C18.858 7.66338 18.7113 7.45596 18.514 7.302C18.3167 7.14804 18.0776 7.05435 17.8263 7.03259L13.055 6.62958L11.1847 2.27202C11.0873 2.04337 10.923 1.84806 10.7126 1.71068C10.5022 1.5733 10.2549 1.5 10.0021 1.5C9.74919 1.5 9.50197 1.5733 9.29153 1.71068C9.08109 1.84806 8.91684 2.04337 8.81947 2.27202L6.95479 6.62958L2.1778 7.03495C1.92556 7.05572 1.68519 7.14898 1.48684 7.30306C1.28849 7.45713 1.14099 7.66515 1.06282 7.90104C0.984657 8.13692 0.979314 8.39016 1.04746 8.629C1.11561 8.86785 1.25422 9.08167 1.4459 9.24364L5.07002 12.3465L3.98383 16.9544C3.92639 17.1955 3.94278 17.4479 4.03095 17.6799C4.11911 17.912 4.27514 18.1134 4.47952 18.2591C4.6839 18.4047 4.92757 18.4881 5.18006 18.4988C5.43256 18.5095 5.68267 18.4471 5.89912 18.3193L9.99644 15.8792L14.1026 18.3193C14.3191 18.4471 14.5692 18.5095 14.8217 18.4988C15.0741 18.4881 15.3178 18.4047 15.5222 18.2591C15.7266 18.1134 15.8826 17.912 15.9708 17.6799C16.0589 17.4479 16.0753 17.1955 16.0179 16.9544L14.9325 12.3418L18.5558 9.24364C18.7475 9.08111 18.8858 8.86668 18.9534 8.62733C19.021 8.38798 19.0149 8.13438 18.9358 7.89843Z" fill="#46A51E"/>
</svg>
