<svg width="36" height="36" viewBox="0 0 36 36" fill="none" xmlns="http://www.w3.org/2000/svg">
<path d="M27.7071 26.2926C27.8 26.3855 27.8737 26.4958 27.924 26.6172C27.9743 26.7386 28.0001 26.8687 28.0001 27.0001C28.0001 27.1315 27.9743 27.2616 27.924 27.383C27.8737 27.5044 27.8 27.6147 27.7071 27.7076C27.6142 27.8005 27.5039 27.8742 27.3825 27.9245C27.2611 27.9747 27.131 28.0006 26.9996 28.0006C26.8682 28.0006 26.7381 27.9747 26.6167 27.9245C26.4953 27.8742 26.385 27.8005 26.2921 27.7076L17.9996 19.4138L9.70708 27.7076C9.51944 27.8952 9.26494 28.0006 8.99958 28.0006C8.73422 28.0006 8.47972 27.8952 8.29208 27.7076C8.10444 27.5199 7.99902 27.2654 7.99902 27.0001C7.99902 26.7347 8.10444 26.4802 8.29208 26.2926L16.5858 18.0001L8.29208 9.70757C8.10444 9.51993 7.99902 9.26543 7.99902 9.00007C7.99902 8.7347 8.10444 8.48021 8.29208 8.29257C8.47972 8.10493 8.73422 7.99951 8.99958 7.99951C9.26494 7.99951 9.51944 8.10493 9.70708 8.29257L17.9996 16.5863L26.2921 8.29257C26.4797 8.10493 26.7342 7.99951 26.9996 7.99951C27.2649 7.99951 27.5194 8.10493 27.7071 8.29257C27.8947 8.48021 28.0001 8.7347 28.0001 9.00007C28.0001 9.26543 27.8947 9.51993 27.7071 9.70757L19.4133 18.0001L27.7071 26.2926Z" fill="white"/>
</svg>
