<svg width="82" height="39" viewBox="0 0 82 39" fill="none" xmlns="http://www.w3.org/2000/svg">
<path d="M4.65728 11.1187L5.48653 8.44924L6.88565 10.9826L8.74398 10.8991L10.5573 0.444934L8.68017 0.108587L7.35861 8.10266L6.17083 5.76223L4.29944 5.82226L3.84952 8.10266L1.86371 0.535004L0.0236867 1.02632L2.751 11.2044L4.65728 11.1187Z" fill="#171D41"/>
<path d="M16.2038 6.09301L13.9733 6.05953L14.7651 2.5335H15.1332L16.2038 6.09301ZM12.7911 11.3039L13.5718 7.82255L16.7503 7.87834L17.7094 11.0473L19.4604 10.9134L16.438 0.78165L13.3599 0.692383L10.9062 11.2147L12.7911 11.3039Z" fill="#171D41"/>
<path d="M20.7422 11.136L22.5043 11.1248L22.5712 3.84962L25.8064 11.1248L27.5685 10.9798L28.2703 1.02521L26.5082 1.18143L26.1072 7.40061L22.5936 0.70298L20.8203 0.680664L20.7422 11.136Z" fill="#171D41"/>
<path d="M31.9277 9.65017C31.9054 6.89407 31.9054 3.97059 31.8831 1.97325C34.1582 2.05136 35.7308 4.05985 35.7308 6.24688C35.7308 8.21074 34.4148 9.60554 31.9277 9.65017ZM30.1656 11.4355L31.9388 11.4243C33.8014 11.402 35.2401 10.8218 36.255 9.68364C37.0468 8.77982 37.5041 7.56357 37.5041 6.22457C37.5041 3.1114 35.1508 0.28834 31.8608 0.187916V0.176758L30.0986 0.187916V0.678883C30.0986 1.02479 30.0986 1.44881 30.1098 1.95093L30.1656 11.4355Z" fill="#171D41"/>
<path d="M38.8652 11.3151L43.5494 11.1477L43.4825 9.38471L40.6831 9.48514L40.6943 7.26463L42.1218 7.22L42.0661 5.44583L40.7054 5.49046L40.7277 2.54467L43.4713 2.67856L43.5605 0.904392L38.9321 0.692383L38.8652 11.3151Z" fill="#171D41"/>
<path d="M58.2497 11.0904L58.2608 9.31622L55.6288 9.30506V0.980957H53.8555L53.8666 11.0681L58.2497 11.0904Z" fill="#171D41"/>
<path d="M62.7565 11.3581C63.8607 11.3581 64.9871 10.6998 65.7343 9.29384C66.4481 7.966 66.7827 6.04677 66.7827 4.16101C66.7827 2.88896 66.6266 1.68387 66.3366 0.768886L64.6525 1.31564C64.8756 2.05209 65.0094 3.04518 65.0094 4.12754C65.0094 5.80128 64.7306 7.4304 64.1729 8.46812C63.7491 9.27152 63.1469 9.58395 62.7454 9.58395C61.8866 9.58395 60.9833 7.95484 60.9833 5.16526C60.9833 3.80394 61.1952 2.27526 61.5409 1.20406L59.8568 0.668457C59.433 1.95166 59.21 3.59194 59.21 5.09831C59.21 9.00372 60.6041 11.3581 62.7565 11.3581Z" fill="#171D41"/>
<path d="M71.1774 6.42814e-05C69.5379 6.42814e-05 68.0881 1.04894 68.0881 2.46605C68.0881 3.23597 68.4338 4.03937 69.1253 4.75351C69.471 5.09941 69.8056 5.37837 70.6309 5.98092L70.7424 6.05903C72.2704 7.13023 72.4376 7.54309 72.4376 8.07869C72.4376 8.84861 71.7573 9.56274 70.9543 9.56274C70.3186 9.56274 69.7164 9.09409 69.2479 8.101L67.6419 8.82629C68.4226 10.5447 69.6718 11.3369 70.9432 11.3369C72.683 11.3369 74.2109 9.8417 74.2109 8.06753C74.2109 7.27529 73.9433 6.55 73.2741 5.83586C72.9507 5.48996 72.4042 5.03247 71.6569 4.53034C70.2852 3.53725 69.9171 3.09092 69.8725 2.51068C69.8725 2.07551 70.5417 1.77424 71.1774 1.77424C71.6569 1.77424 72.0919 1.95277 72.2369 2.34331L73.9098 1.75192C73.4972 0.591453 72.393 6.42814e-05 71.1774 6.42814e-05Z" fill="#171D41"/>
<path d="M78.9179 11.413V2.60771H81.0262V0.787109H75.4336V2.60771H77.1535V11.4016L78.9179 11.413Z" fill="#171D41"/>
<path d="M20.69 15.727L16.9139 15.8167L11.8136 27.1596L5.68268 16.1789L1.83584 16.2941L2.34506 37.6791L6.09746 37.5899L5.77665 24.1173L10.098 31.9553L13.8731 31.818L17.1238 24.6321L17.4276 37.3919L21.2038 37.3021L20.69 15.727Z" fill="#171D41"/>
<path d="M27.6368 16.0625H23.8574V37.3213H27.6368V16.0625Z" fill="#171D41"/>
<path d="M30.4717 37.5571L34.2385 37.5334L34.3815 22.0833L44.6567 37.4623L48.4235 37.1543L46.6832 17.3914L42.9164 17.7232L43.9654 29.5951L34.4292 15.4009L30.6386 15.3535L30.4717 37.5571Z" fill="#171D41"/>
<path d="M56.621 38.0298C60.1581 38.0298 63.2862 35.8007 63.2862 32.789C63.2862 31.1528 62.5403 29.4454 61.0484 27.9277C60.3025 27.1926 59.5807 26.5997 57.8001 25.3192L57.5595 25.1532C54.263 22.8766 53.902 21.9992 53.902 20.861C53.902 19.2247 55.3698 17.707 57.1023 17.707C58.4738 17.707 59.7732 18.703 60.7838 20.8135L64.2487 19.2721C62.5643 15.6202 59.8694 13.9365 57.1263 13.9365C53.3727 13.9365 50.0762 17.1142 50.0762 20.8847C50.0762 22.5684 50.6537 24.1098 52.0974 25.6275C52.7952 26.3626 53.9742 27.3349 55.5864 28.402C58.546 30.5125 59.34 31.4611 59.4363 32.6942C59.4363 33.619 57.9926 34.2593 56.621 34.2593C55.5864 34.2593 54.6479 33.8799 54.3351 33.0499L50.7258 34.3067C51.6161 36.773 53.9983 38.0298 56.621 38.0298Z" fill="#171D41"/>
<path d="M70.122 37.557L70.2169 28.2724L78.6432 37.5333L81.0199 33.9951L71.9481 24.9005L79.205 17.8242L76.5963 15.1172L70.288 21.2674L70.3118 15.9008L66.541 15.8533L66.375 37.5333L70.122 37.557Z" fill="#171D41"/>
<path d="M48.4162 7.09549L47.2209 7.05106L47.0727 11.0376L45.3981 10.9754L45.7842 0.589356L48.1016 0.675492C49.4571 0.725874 50.4589 1.02825 51.107 1.58261C51.7554 2.12698 52.0602 2.92371 52.0212 3.9728C51.9718 5.30165 51.354 6.21417 50.1678 6.71036L52.0074 11.221L50.003 11.1465L48.4162 7.09549ZM47.2827 5.3875L48.0153 5.41472C50.7855 5.66899 51.376 2.00776 48.0138 2.23274L47.4008 2.20996L47.2827 5.3875Z" fill="#171D41"/>
</svg>
