<svg width="77" height="38" viewBox="0 0 77 38" fill="none" xmlns="http://www.w3.org/2000/svg">
<path d="M4.91088 11.7244L5.78529 8.90953L7.2606 11.5808L9.22012 11.4928L11.1322 0.469359L9.15284 0.114696L7.75931 8.54407L6.50686 6.0762L4.53356 6.1395L4.05914 8.54407L1.96519 0.564333L0.0249765 1.0824L2.9008 11.8147L4.91088 11.7244Z" fill="#171D41"/>
<path d="M17.086 6.4242L14.734 6.3889L15.569 2.67087H15.9571L17.086 6.4242ZM13.4875 11.9189L14.3107 8.24792L17.6623 8.30675L18.6737 11.6483L20.52 11.5071L17.333 0.823621L14.0872 0.729492L11.5 11.8248L13.4875 11.9189Z" fill="#171D41"/>
<path d="M21.8721 11.7424L23.7302 11.7307L23.8007 4.0593L27.212 11.7307L29.0701 11.5777L29.8102 1.08108L27.9521 1.24581L27.5292 7.80364L23.8242 0.741305L21.9544 0.717773L21.8721 11.7424Z" fill="#171D41"/>
<path d="M33.6669 10.1773C33.6434 7.27108 33.6434 4.1884 33.6199 2.0823C36.019 2.16467 37.6771 4.28253 37.6771 6.58865C37.6771 8.65945 36.2894 10.1302 33.6669 10.1773ZM31.8088 12.0598L33.6787 12.048C35.6426 12.0245 37.1597 11.4127 38.2299 10.2126C39.0648 9.25952 39.547 7.97703 39.547 6.56512C39.547 3.28243 37.0656 0.305646 33.5964 0.199754V0.187988L31.7383 0.199754V0.717456C31.7383 1.0822 31.7383 1.5293 31.75 2.05877L31.8088 12.0598Z" fill="#171D41"/>
<path d="M40.9814 11.9307L45.9207 11.7542L45.8501 9.89515L42.8983 10.001L42.9101 7.65962L44.4154 7.61256L44.3566 5.74178L42.9219 5.78884L42.9454 2.68264L45.8384 2.82383L45.9324 0.953046L41.052 0.729492L40.9814 11.9307Z" fill="#171D41"/>
<path d="M52.529 11.6951L52.5407 9.8243L49.7654 9.81254V1.03516H47.8955L47.9073 11.6716L52.529 11.6951Z" fill="#171D41"/>
<path d="M57.2807 11.9778C58.445 11.9778 59.6327 11.2836 60.4207 9.80112C61.1733 8.40097 61.5261 6.37723 61.5261 4.38879C61.5261 3.04748 61.3615 1.77676 61.0557 0.811952L59.2799 1.38848C59.5151 2.16503 59.6563 3.2122 59.6563 4.35349C59.6563 6.11838 59.3623 7.83621 58.7743 8.93044C58.3274 9.77759 57.6923 10.107 57.269 10.107C56.3634 10.107 55.4109 8.38921 55.4109 5.44772C55.4109 4.01228 55.6343 2.40035 55.9989 1.27082L54.2231 0.706055C53.7762 2.05914 53.541 3.78873 53.541 5.37713C53.541 9.4952 55.011 11.9778 57.2807 11.9778Z" fill="#171D41"/>
<path d="M66.1597 -7.85973e-05C64.4309 -7.85973e-05 62.9021 1.10592 62.9021 2.60019C62.9021 3.41204 63.2667 4.25919 63.9958 5.0122C64.3604 5.37695 64.7132 5.6711 65.5834 6.30646L65.701 6.38882C67.3121 7.51835 67.4885 7.95369 67.4885 8.51845C67.4885 9.3303 66.7712 10.0833 65.9244 10.0833C65.2541 10.0833 64.6191 9.58915 64.1252 8.54198L62.4317 9.30677C63.2549 11.1187 64.572 11.9541 65.9127 11.9541C67.7473 11.9541 69.3584 10.3775 69.3584 8.50669C69.3584 7.67131 69.0762 6.90652 68.3705 6.1535C68.0295 5.78876 67.4533 5.30635 66.6653 4.77689C65.2188 3.72972 64.8308 3.25908 64.7837 2.64725C64.7837 2.18838 65.4893 1.8707 66.1597 1.8707C66.6653 1.8707 67.124 2.05895 67.2769 2.47076L69.0409 1.84717C68.6058 0.623514 67.4415 -7.85973e-05 66.1597 -7.85973e-05Z" fill="#171D41"/>
<path d="M74.3215 12.0341V2.74933H76.5446V0.82959H70.6475V2.74933H72.4611V12.022L74.3215 12.0341Z" fill="#171D41"/>
<path d="M19.7049 16.3777L16.146 16.4624L11.3391 27.1527L5.56083 16.8037L1.93528 16.9123L2.41521 37.0671L5.95176 36.983L5.64941 24.2855L9.72219 31.6726L13.2801 31.5432L16.3438 24.7706L16.6302 36.7964L20.1891 36.7118L19.7049 16.3777Z" fill="#171D41"/>
<path d="M26.2875 16.6533H22.7275V36.6795H26.2875V16.6533Z" fill="#171D41"/>
<path d="M28.8828 36.9928L32.4204 36.9704L32.5547 22.3652L42.2046 36.9032L45.7421 36.612L44.1077 17.9299L40.5701 18.2435L41.5553 29.4662L32.5995 16.0482L29.0395 16.0034L28.8828 36.9928Z" fill="#171D41"/>
<path d="M53.5782 37.3963C56.8695 37.3963 59.7801 35.2906 59.7801 32.4457C59.7801 30.9001 59.0861 29.2872 57.6979 27.8536C57.0038 27.1592 56.3321 26.5992 54.6753 25.3895L54.4514 25.2327C51.3841 23.0823 51.0482 22.2534 51.0482 21.1782C51.0482 19.6326 52.414 18.1989 54.026 18.1989C55.3022 18.1989 56.5113 19.1397 57.4516 21.1334L60.6757 19.6774C59.1085 16.2277 56.6008 14.6372 54.0484 14.6372C50.5556 14.6372 47.4883 17.6389 47.4883 21.2006C47.4883 22.791 48.0256 24.2471 49.369 25.6807C50.0183 26.3751 51.1154 27.2936 52.6155 28.3016C55.3694 30.2953 56.1082 31.1913 56.1978 32.3561C56.1978 33.2297 54.8544 33.8346 53.5782 33.8346C52.6155 33.8346 51.7423 33.4761 51.4512 32.6921L48.0928 33.8794C48.9212 36.209 51.1378 37.3963 53.5782 37.3963Z" fill="#171D41"/>
<path d="M66.3178 36.9704L66.4074 28.2117L74.3626 36.948L76.6064 33.6103L68.0418 25.0308L74.893 18.3554L72.4302 15.8018L66.4745 21.6035L66.4969 16.541L62.937 16.4962L62.7803 36.948L66.3178 36.9704Z" fill="#171D41"/>
</svg>
