<svg width="95" height="28" viewBox="0 0 95 28" fill="none" xmlns="http://www.w3.org/2000/svg">
<path d="M17.3984 0.708458L13.6141 13.0978H11.7734L9.01692 4.0434C8.89856 3.65749 8.82692 3.23702 8.80201 2.78199H8.76463C8.72725 3.20822 8.64627 3.62293 8.52169 4.02612L5.74653 13.0978H3.92446L0 0.708458H1.72863L4.57854 10.2122C4.6969 10.6096 4.77165 11.0243 4.80279 11.4563H4.84951C4.88066 11.151 4.97721 10.7363 5.13918 10.2122L8.10121 0.708458H9.60559L12.4461 10.2813C12.5458 10.6096 12.6206 10.9955 12.6704 11.439H12.7078C12.7327 11.1395 12.8168 10.7421 12.9601 10.2467L15.6978 0.708458H17.3984Z" fill="#111111"/>
<path d="M25.2941 13.0978H23.7617V11.7155H23.7243C23.0578 12.7753 22.0767 13.3052 20.781 13.3052C19.8279 13.3052 19.0804 13.0719 18.5384 12.6054C18.0027 12.1388 17.7348 11.5196 17.7348 10.7478C17.7348 9.09476 18.7876 8.13287 20.8931 7.86216L23.7617 7.49065C23.7617 5.98734 23.1045 5.23568 21.7901 5.23568C20.6377 5.23568 19.5974 5.59855 18.6692 6.32429V4.87281C19.6098 4.31987 20.6937 4.0434 21.9209 4.0434C24.1697 4.0434 25.2941 5.14352 25.2941 7.34378V13.0978ZM23.7617 8.62246L21.4537 8.91621C20.7436 9.00836 20.2079 9.17252 19.8466 9.40867C19.4853 9.63907 19.3046 10.0509 19.3046 10.6442C19.3046 11.0761 19.4697 11.4304 19.7998 11.7068C20.1362 11.9776 20.5816 12.1129 21.136 12.1129C21.896 12.1129 22.522 11.8681 23.0142 11.3785C23.5125 10.8832 23.7617 10.2582 23.7617 9.50371V8.62246Z" fill="#111111"/>
<path d="M36.1237 13.0978H34.5913V8.05223C34.5913 6.17453 33.85 5.23568 32.3675 5.23568C31.6013 5.23568 30.9659 5.50351 30.4613 6.03918C29.963 6.56908 29.7138 7.2401 29.7138 8.05223V13.0978H28.1814V4.25075H29.7138V5.7195H29.7512C30.4738 4.6021 31.5203 4.0434 32.8907 4.0434C33.9372 4.0434 34.7377 4.35731 35.2921 4.98513C35.8465 5.60719 36.1237 6.5086 36.1237 7.68936V13.0978Z" fill="#111111"/>
<path d="M47.187 13.0978H45.6546V11.5945H45.6172C44.9071 12.735 43.8107 13.3052 42.3281 13.3052C41.1259 13.3052 40.1634 12.9106 39.4408 12.1215C38.7245 11.3267 38.3663 10.2467 38.3663 8.88165C38.3663 7.41865 38.765 6.24653 39.5623 5.36528C40.3597 4.48402 41.4218 4.0434 42.7486 4.0434C44.063 4.0434 45.0192 4.52146 45.6172 5.47759H45.6546V0H47.187V13.0978ZM45.6546 9.09764V7.79304C45.6546 7.07882 45.3992 6.47404 44.8884 5.9787C44.3776 5.48335 43.7297 5.23568 42.9448 5.23568C42.0104 5.23568 41.2754 5.55247 40.7396 6.18605C40.2039 6.81963 39.9361 7.69512 39.9361 8.81253C39.9361 9.83202 40.1915 10.6384 40.7023 11.2317C41.2193 11.8192 41.9108 12.1129 42.7766 12.1129C43.63 12.1129 44.3215 11.8278 44.851 11.2576C45.3867 10.6874 45.6546 9.96737 45.6546 9.09764Z" fill="#111111"/>
<path d="M57.9792 9.02852H51.2236C51.2485 10.0135 51.535 10.7738 52.0832 11.3094C52.6314 11.8451 53.3851 12.1129 54.3444 12.1129C55.4221 12.1129 56.4126 11.7846 57.3158 11.128V12.4585C56.4749 13.023 55.3629 13.3052 53.98 13.3052C52.6283 13.3052 51.5662 12.9049 50.7937 12.1043C50.0213 11.2979 49.6351 10.1661 49.6351 8.70885C49.6351 7.33226 50.0556 6.21197 50.8965 5.348C51.7437 4.47826 52.7934 4.0434 54.0454 4.0434C55.2975 4.0434 56.2662 4.41778 56.9514 5.16656C57.6366 5.91534 57.9792 6.95499 57.9792 8.28551V9.02852ZM56.4095 7.8276C56.4032 7.00971 56.1883 6.37324 55.7647 5.91822C55.3474 5.46319 54.7649 5.23568 54.0174 5.23568C53.2948 5.23568 52.6812 5.47471 52.1766 5.95278C51.6721 6.43084 51.3606 7.05578 51.2423 7.8276H56.4095Z" fill="#111111"/>
<path d="M65.2956 5.68495C65.0277 5.49487 64.6415 5.39983 64.1369 5.39983C63.4828 5.39983 62.9347 5.68495 62.4924 6.25517C62.0563 6.82539 61.8383 7.60297 61.8383 8.5879V13.0978H60.3059V4.25075H61.8383V6.07373H61.8757C62.0937 5.45167 62.427 4.96785 62.8755 4.62226C63.324 4.27091 63.8254 4.09523 64.3799 4.09523C64.7785 4.09523 65.0838 4.13555 65.2956 4.21619V5.68495Z" fill="#111111"/>
<path d="M68.4912 13.0978H66.9588V0H68.4912V13.0978Z" fill="#111111"/>
<path d="M79.3302 13.0978H77.7978V11.6982H77.7604C77.125 12.7695 76.1408 13.3052 74.8077 13.3052C72.5278 13.3052 71.3878 12.0496 71.3878 9.53827V4.25075H72.9109V9.31363C72.9109 11.1798 73.6833 12.1129 75.2282 12.1129C75.9757 12.1129 76.5893 11.8595 77.0689 11.3526C77.5548 10.84 77.7978 10.1718 77.7978 9.34819V4.25075H79.3302V13.0978Z" fill="#111111"/>
<path d="M81.8531 12.7782V11.2576C82.6878 11.8278 83.6066 12.1129 84.6095 12.1129C85.955 12.1129 86.6278 11.6982 86.6278 10.8688C86.6278 10.6326 86.5686 10.4339 86.4503 10.2726C86.3382 10.1056 86.1824 9.95873 85.9831 9.83202C85.79 9.7053 85.5595 9.59299 85.2916 9.49507C85.03 9.39139 84.7466 9.28484 84.4413 9.1754C84.0177 9.01988 83.644 8.86437 83.3201 8.70885C83.0024 8.54758 82.7345 8.36902 82.5165 8.17319C82.3047 7.9716 82.1427 7.74408 82.0306 7.49065C81.9247 7.23722 81.8717 6.94059 81.8717 6.60076C81.8717 6.18605 81.9745 5.8203 82.1801 5.50351C82.3857 5.18096 82.6597 4.91313 83.0024 4.70002C83.345 4.48114 83.7343 4.31699 84.1704 4.20755C84.6126 4.09811 85.0674 4.0434 85.5346 4.0434C86.3631 4.0434 87.1044 4.17587 87.7584 4.44082V5.87502C87.0545 5.44879 86.2447 5.23568 85.329 5.23568C85.0425 5.23568 84.7839 5.26736 84.5535 5.33072C84.323 5.38831 84.1236 5.47183 83.9554 5.58127C83.7935 5.69071 83.6658 5.82318 83.5723 5.9787C83.4851 6.12845 83.4415 6.29549 83.4415 6.4798C83.4415 6.71019 83.4851 6.90315 83.5723 7.05866C83.6658 7.21418 83.7997 7.35241 83.9741 7.47337C84.1486 7.59433 84.3604 7.70376 84.6095 7.80168C84.8587 7.8996 85.1421 8.00616 85.4598 8.12135C85.8834 8.27111 86.2634 8.42662 86.5998 8.5879C86.9362 8.74341 87.2227 8.92197 87.4594 9.12356C87.6961 9.3194 87.8768 9.54691 88.0014 9.8061C88.1322 10.0653 88.1976 10.3734 88.1976 10.7306C88.1976 11.1683 88.0917 11.5484 87.8799 11.871C87.6743 12.1935 87.3971 12.4614 87.0483 12.6745C86.6995 12.8876 86.2977 13.046 85.8429 13.1497C85.3882 13.2534 84.9116 13.3052 84.4133 13.3052C83.4291 13.3052 82.5757 13.1295 81.8531 12.7782Z" fill="#111111"/>
<path d="M95 13.0114C94.6387 13.1958 94.1622 13.2879 93.5704 13.2879C91.8947 13.2879 91.0568 12.4239 91.0568 10.696V5.46031H89.4123V4.25075H91.0568V2.09082L92.5893 1.63291V4.25075H95V5.46031H92.5893V10.4454C92.5893 11.0387 92.6983 11.462 92.9163 11.7155C93.1343 11.9689 93.4956 12.0956 94.0002 12.0956C94.3864 12.0956 94.7197 11.9977 95 11.8019V13.0114Z" fill="#111111"/>
<path d="M16.2678 27.784H12.2873L13.9599 20.4921L14.399 18.6345H14.3243L13.6328 20.1724L9.85787 27.784H6.14832L5.67178 20.6044C5.63441 20.1206 5.61572 19.4639 5.61572 18.6345H5.53162C5.35097 19.9074 5.14229 21.0709 4.90558 22.125L3.60677 27.784H0.0280319L2.85925 15.3946H8.52169L8.98889 22.7989C8.98889 23.1733 8.97331 23.5621 8.94217 23.9652H8.99823C9.10413 23.6888 9.21314 23.4008 9.32527 23.1013C9.4374 22.796 9.55264 22.5224 9.67099 22.2805L12.9414 15.3946H19.1084L16.2678 27.784Z" fill="#111111"/>
<path d="M25.0979 16.4573C25.0979 17.0045 24.8798 17.448 24.4438 17.7878C24.014 18.1277 23.4471 18.2976 22.7432 18.2976C22.1203 18.2976 21.6126 18.1478 21.2201 17.8483C20.8277 17.543 20.6315 17.1629 20.6315 16.7079C20.6315 16.1549 20.8495 15.7085 21.2855 15.3687C21.7216 15.0231 22.2947 14.8503 23.0048 14.8503C23.6153 14.8503 24.1167 15.0001 24.5092 15.2996C24.9016 15.5933 25.0979 15.9792 25.0979 16.4573ZM22.033 28C21.0987 28 20.3605 27.7725 19.8185 27.3175C19.2766 26.8624 19.0056 26.2577 19.0056 25.5031C19.0056 25.1345 19.071 24.6852 19.2018 24.1553L20.4259 18.9369H24.4064L23.2384 24.0344C23.1761 24.2763 23.145 24.5009 23.145 24.7083C23.145 25.0366 23.3599 25.2007 23.7897 25.2007C24.1386 25.2007 24.4905 25.1287 24.8456 24.9847L24.2289 27.663C24.0482 27.7437 23.7648 27.8186 23.3786 27.8877C22.9924 27.9626 22.5438 28 22.033 28Z" fill="#111111"/>
<path d="M37.2065 20.8981C37.2065 21.3013 37.1349 21.8024 36.9916 22.4015L35.7675 27.784H31.787L32.9176 22.8853C33.0235 22.4936 33.0765 22.197 33.0765 21.9954C33.0765 21.6095 32.8647 21.4165 32.4411 21.4165C32.1047 21.4165 31.7403 21.6239 31.3479 22.0386C30.9554 22.4475 30.7 22.9112 30.5816 23.4296L29.6099 27.784H25.592L26.9468 21.909C27.1649 20.9529 27.3518 19.9622 27.5075 18.9369H31.4226C31.379 19.6281 31.3167 20.135 31.2357 20.4575H31.2731C31.7839 19.9218 32.3695 19.4985 33.0298 19.1875C33.6963 18.8764 34.3223 18.7209 34.9079 18.7209C36.4403 18.7209 37.2065 19.4467 37.2065 20.8981Z" fill="#111111"/>
<path d="M46.0085 21.5548C45.6846 21.428 45.2859 21.31 44.8125 21.2005C44.3453 21.0853 43.9217 21.0277 43.5417 21.0277C42.9686 21.0277 42.6821 21.1919 42.6821 21.5202C42.6821 21.6988 42.7537 21.8312 42.897 21.9176C43.0403 21.9983 43.2302 22.0847 43.467 22.1768C44.2082 22.4533 44.7346 22.7038 45.0461 22.9285C45.3638 23.1474 45.5974 23.4094 45.7469 23.7147C45.8964 24.0142 45.9711 24.3915 45.9711 24.8465C45.9711 25.4686 45.7749 26.0186 45.3825 26.4967C44.99 26.969 44.42 27.3376 43.6725 27.6026C42.925 27.8675 42.0187 28 40.9534 28C40.3243 28 39.7138 27.9568 39.122 27.8704C38.5365 27.7898 38.0381 27.689 37.627 27.568L38.1409 25.0279C39.2497 25.4945 40.234 25.7278 41.0936 25.7278C41.8723 25.7278 42.2616 25.5406 42.2616 25.1662C42.2616 24.9991 42.1744 24.8638 42 24.7601C41.8318 24.6507 41.6169 24.5556 41.3552 24.475C40.4208 24.1928 39.7636 23.8443 39.3837 23.4296C39.0037 23.0149 38.8137 22.4792 38.8137 21.8226C38.8137 21.2063 39.0099 20.6562 39.4023 20.1724C39.801 19.6886 40.3461 19.3257 41.0375 19.0838C41.7352 18.8419 42.5575 18.7209 43.5043 18.7209C43.9528 18.7209 44.4855 18.7612 45.1022 18.8419C45.7189 18.9168 46.1923 18.9945 46.5224 19.0752L46.0085 21.5548Z" fill="#111111"/>
<path d="M55.6234 23.2913L57.4268 27.784H53.0819L51.699 23.3259H51.6616L50.6338 27.784H46.6533L49.6713 14.6862H53.6519L51.7364 23.0062H51.7831L54.9133 18.9369H59.4918L55.6234 23.2913Z" fill="#111111"/>
</svg>
